<?xml version="1.0" standalone="no"?><!DOCTYPE svg PUBLIC "-//W3C//DTD SVG 1.1//EN" "http://www.w3.org/Graphics/SVG/1.1/DTD/svg11.dtd"><svg t="1575878266137" class="icon" viewBox="0 0 1024 1024" version="1.1" xmlns="http://www.w3.org/2000/svg" p-id="4046" width="300" height="300" xmlns:xlink="http://www.w3.org/1999/xlink"><defs><style type="text/css"></style></defs><path d="M473.408625 1023.99929c-51.58847 0.199955-93.579085-41.390749-93.978995-92.979218l-0.39991-66.585118c-184.658728 40.191017-223.650013-78.382481-223.650013-78.382481-30.193252-76.682861-73.683531-97.078302-73.683532-97.078303-60.186548-41.190794 4.598972-40.390972 4.598973-40.390972 66.585118 4.69895 101.677275 68.384716 101.677274 68.384715 59.186771 101.477319 155.365275 72.183866 193.156828 55.187666 5.998659-42.890414 23.194816-72.183866 42.190571-88.780157-147.46704-16.796246-302.432405-73.683531-302.432405-328.026685 0-72.483799 25.894212-131.670571 68.384716-178.16018-6.898458-16.796246-29.593386-84.281163 6.398569-175.660738 0 0 55.787531-17.796022 182.559197 68.084782 54.187889-14.696715 110.075398-22.295017 166.162862-22.295017 56.387397 0.199955 113.174705 7.598302 166.262839 22.295017C837.427265-16.268204 893.114819 1.527819 893.114819 1.527819c36.091933 91.479554 13.397006 158.964471 6.498547 175.660738 42.590481 46.489609 68.284738 105.676381 68.284738 178.16018 0 254.943019-155.365275 311.130461-303.132248 327.526796 23.794682 20.595397 44.989944 60.986369 44.989944 122.972515 0 88.880135-0.299933 125.072046-0.299933 125.072046-0.399911 51.58847-42.290548 93.179174-93.879017 93.079196H473.408625z m0 0" p-id="4047" fill="#ffffff"></path></svg>