<?xml version="1.0" standalone="no"?><!DOCTYPE svg PUBLIC "-//W3C//DTD SVG 1.1//EN" "http://www.w3.org/Graphics/SVG/1.1/DTD/svg11.dtd"><svg t="1575507204067" class="icon" viewBox="0 0 1024 1024" version="1.1" xmlns="http://www.w3.org/2000/svg" p-id="6626" width="32" height="32" xmlns:xlink="http://www.w3.org/1999/xlink"><defs><style type="text/css"></style></defs><path d="M887.52 386.336c-1.152-17.632-16-24.416-33.536-11.904a726.4 726.4 0 0 0-99.584-5.504 222.368 222.368 0 0 1-78.56-28.8c5.216-6.944 2.72-21.92-30.752-22.944-9.216-3.04-18.656-7.424-27.616-11.072a23.712 23.712 0 0 0-0.736-16 22.4 22.4 0 0 0 10.336-32c17.376 0.48 14.624-26.4 12.224-35.712a24.416 24.416 0 0 0 9.856-34.304c16.448-3.744 16.896-23.008 15.52-36.64 16.896-0.928 14.56-30.528 14.56-36.64 14.56-9.408 11.296-22.08 13.568-36.768 8.992-18.176-3.2-23.36-11.84-3.968-9.248 16.8-21.088 24.128-20.992 36.512 4.224 7.04-31.488 17.376-20.192 39.456-8 9.856-26.784 22.4-20.096 37.664-3.392 7.424-27.36 24.8-17.024 41.248-22.4 15.04-21.216 18.656-16.448 32.416a51.36 51.36 0 0 0-16.768 17.312 72.224 72.224 0 0 1-14.464-46.4c0-18.336-34.112 1.792-34.112 37.952a53.088 53.088 0 0 1-0.768 8.64 396.8 396.8 0 0 0-45.216 8.352 2.624 2.624 0 0 0-1.024 1.76 48.704 48.704 0 0 1-1.536-8.704c-3.2-21.216-27.616-53.504-39.488-13.632a264.384 264.384 0 0 0-11.84 32.384s-1.888 1.28-5.344 3.424c-14.656 9.088-19.936 37.408-73.152 55.296a306.208 306.208 0 0 1-72.512 13.408c-53.536 4.32-156.032 96.864-162.912 185.184a334.624 334.624 0 0 0 20.128 124.8l0.256 0.672 0.864 2.24q2.336 6.016 4.992 11.552a131.2 131.2 0 0 0 44.384 55.296 141.28 141.28 0 0 0 24.448 15.456c33.056 54.4 103.2 124.512 235.424 83.2a319.424 319.424 0 0 1 327.712 86.72c19.008 19.2-49.152-166.944-193.536-250.592-85.344-46.56-31.776-126.784-25.6-155.104a81.92 81.92 0 0 0 117.984-25.28c44.8 11.552 74.784-8.192 113.312 5.76 23.392 10.272 121.824 4.064 85.248-50.944 23.008-15.008 25.44-10.144 36.928-33.024a39.392 39.392 0 0 0-12.096-40.768zM494.208 311.904l-0.704 0.32 0.64-0.576z m-75.04 25.312l-1.184 6.816q0.32-6.976 0.8-14.816c0.128 2.432 0.416 5.056 0.416 8z m59.84-35.424a136.896 136.896 0 0 0 9.312 12.192 52.896 52.896 0 0 1-9.344-12.192z" fill="#353a40" p-id="6627"></path><path d="M177.184 711.904s56.064 202.016 260.448 138.08a319.424 319.424 0 0 1 327.712 86.72c19.008 19.2-49.152-166.944-193.536-250.592-85.344-46.56-31.776-126.784-25.6-155.104a81.92 81.92 0 0 0 117.984-25.28c44.8 11.552 74.784-8.192 113.312 5.76 23.392 10.272 121.824 4.064 85.248-50.944 23.008-15.008 25.44-10.144 36.928-33.024a39.392 39.392 0 0 0-12.128-41.216c-1.152-17.632-16-24.416-33.536-11.904a726.4 726.4 0 0 0-99.584-5.504 222.368 222.368 0 0 1-78.56-28.8c5.216-6.944 2.72-21.92-30.752-22.944a236.256 236.256 0 0 0-51.968-17.696 16.448 16.448 0 0 1-16.32-14.208 61.6 61.6 0 0 1-21.824-52.8c0-18.336-34.112 1.792-34.112 37.952a43.424 43.424 0 0 1-32.544 43.424 54.4 54.4 0 0 1-16-33.344c-3.2-21.216-27.616-53.504-39.488-13.632a256.32 256.32 0 0 0-23.04 73.6c-7.328 43.136-1.92 44.8-1.92 44.8l-183.648 131.2z" fill="#353a40" p-id="6628"></path><path d="M611.744 368.224c8.672-3.2 5.024-2.336 6.4-3.2a177.152 177.152 0 0 1-80-6.4c2.208 1.28 14.368 5.376 16 6.4 1.216 4 0.544 8.032 16.416 15.168a47.136 47.136 0 0 0 38.4-2.944c0.288-9.536 0.384-6.048 2.784-9.024z" fill="#353a40" p-id="6629"></path><path d="M792.832 475.36c-15.84-11.68-27.296-1.472-36.192-2.304a85.824 85.824 0 0 1 46.144-11.552c14.176 0 21.696 12.288 31.168 12.352a74.56 74.56 0 0 0 28.8-13.312c-5.408 4.704 2.528 9.824-2.752 16.8a25.056 25.056 0 0 1-14.912 11.488 41.6 41.6 0 0 1-52.256-13.472z" fill="#353a40" p-id="6630"></path><path d="M448.48 263.04a113.056 113.056 0 0 0 1.76 85.76c20.512 41.024 2.912-38.208 26.24-23.296 19.008 2.144-13.344-17.984-11.36-43.744-1.12-16.16-9.952-28.96-16.64-18.72zM808.832 410.656c0 6.4-7.616 11.36-17.024 11.36 20-6.4-1.12-26.048-17.024-11.36 0-6.4 7.616-11.36 17.024-11.36s17.024 5.088 17.024 11.36z" fill="#353a40" p-id="6631"></path><path d="M779.904 396.224c21.12-1.28 35.456 1.792 30.976 17.568 3.2-6.4 7.232-15.84-5.856-19.616a33.216 33.216 0 0 0-25.12 2.048z" fill="#353a40" p-id="6632"></path><path d="M476.416 515.968c0-19.712-8.448-40.096-39.392-81.6a114.048 114.048 0 0 1-17.952-35.2 122.784 122.784 0 0 1-3.424-96.416c-14.656 9.088-19.936 37.408-73.152 55.296a306.208 306.208 0 0 1-72.512 13.408c-53.536 4.32-156.032 96.864-162.912 185.184a334.624 334.624 0 0 0 20.128 124.8l0.256 0.672 0.864 2.24q2.336 6.016 4.992 11.552a131.2 131.2 0 0 0 44.384 55.296 126.208 126.208 0 0 0 31.36 18.496 73.408 73.408 0 0 1-12.8-68.928 33.952 33.952 0 0 0 20.416 26.72 29.088 29.088 0 0 1 0-26.016A101.728 101.728 0 0 0 262.592 761.6a163.008 163.008 0 0 1-21.088-85.824 247.232 247.232 0 0 0 59.072 78.08 204.8 204.8 0 0 1-39.04-106.56 112 112 0 0 0 36.928 36.928 76.16 76.16 0 0 1-12.8-47.136 154.56 154.56 0 0 0 80.192 45.024 200.064 200.064 0 0 1-68.928-70.4 88.544 88.544 0 0 0 49.952 7.744 64.192 64.192 0 0 1-32.352-50.656 345.6 345.6 0 0 0 90.048 65.408 255.328 255.328 0 0 1-64.704-90.752 57.12 57.12 0 0 0 34.464 8.448 107.648 107.648 0 0 1-23.552-51.712 112 112 0 0 0 39.744 39.744 77.504 77.504 0 0 1-2.816-67.52 104.672 104.672 0 0 1 38.688 52.064A117.344 117.344 0 0 0 416 465.312c12.16 3.488 26.752 18.752 45.728 55.584a184.832 184.832 0 0 0-23.2-65.408c16.864 19.616 42.208 71.104 37.888 60.48z" fill="#353a40" p-id="6633"></path><path d="M567.872 297.408s-1.472 41.792 37.568 14.56c20.192 0.48 11.264-21.6 11.264-21.6a22.4 22.4 0 0 0 10.336-32c17.376 0.48 14.624-26.4 12.224-35.712a24.416 24.416 0 0 0 9.856-34.304c16.448-3.744 16.896-23.008 15.52-36.64 16.896-0.928 14.56-30.528 14.56-36.64 14.56-9.408 11.296-22.08 13.568-36.768 8.992-18.176-3.2-23.36-11.84-3.968-9.248 16.8-21.088 24.128-20.992 36.512 4.224 7.04-31.488 17.376-20.192 39.456-8 9.856-26.784 22.4-20.096 37.664-3.392 7.424-27.36 24.8-17.024 41.248-22.4 15.04-21.216 18.656-16.448 32.416-12.032 7.808-24.64 23.168-18.304 35.776z" fill="#353a40" p-id="6634"></path><path d="M667.584 100.096a34.016 34.016 0 0 0-4.128 11.936c0 4.512 12.224 3.2 16.384-1.28-9.088 0.16-16.576 1.632-12.256-10.656zM643.744 135.168a12.8 12.8 0 0 0-1.024 12.8c2.208 5.472 15.712 5.376 19.872 0.928-9.088 0.32-23.168-1.44-18.848-13.728zM626.208 171.296a16.96 16.96 0 0 0-2.752 14.56c0 4.512 16 5.344 20.032 0.896-9.088 0.128-20.384-2.72-17.28-15.456zM608.992 211.36A12.544 12.544 0 0 0 608 227.84a24.416 24.416 0 0 0 25.088-4.16c-8.928 0.128-27.2 0.32-24.096-12.32zM592.192 243.392a12.8 12.8 0 0 0 0 18.528 33.472 33.472 0 0 0 29.728-3.2c-9.216 0-33.632-7.68-29.728-15.328zM574.56 281.12a12.544 12.544 0 0 0-0.832 16.48 53.504 53.504 0 0 0 37.92-5.504c-9.088 0.128-40.192 1.728-37.088-10.976z" fill="#353a40" p-id="6635"></path><path d="M568.32 298.048a9.088 9.088 0 0 1-2.048-9.6s2.08-22.976-91.392-0.896c-5.984 4.128 13.408 26.432 13.408 26.432s2.336 1.216 5.856-2.336c1.408 6.4 4.768 22.848 1.312 25.6a21.536 21.536 0 0 0 9.376-23.072 35.2 35.2 0 0 1 26.24 21.152 26.144 26.144 0 0 0-2.144-23.072 49.056 49.056 0 0 1 30.016 17.472 28.448 28.448 0 0 0 0-16.416 49.12 49.12 0 0 1 20.768 16.704 43.52 43.52 0 0 0-11.392-31.968z" fill="#353a40" p-id="6636"></path><path d="M478.656 452.736s37.824 76.032 98.464 78.272 60.608-15.264 60.608-15.264a180 180 0 0 1-159.072-63.008zM496.32 495.776a101.632 101.632 0 0 0 43.2 35.712s-41.216 62.144-20.192 112 73.44 61.856 130.496 118.912a776.32 776.32 0 0 1 96 139.68s-99.776-79.328-164.608-75.424a249.792 249.792 0 0 0-59.232-98.304c-62.912-62.752-90.464-144.736-25.664-232.576z" opacity=".26" p-id="6637" fill="#353a40"></path><path d="M391.296 342.4a217.6 217.6 0 0 1-136.608 45.216C159.296 425.6 101.184 537.088 121.6 614.208a544 544 0 0 0 21.76 79.328c-4.96-33.12-7.744-63.776 5.792-76.096a24.96 24.96 0 0 0 25.216 13.856 32.256 32.256 0 0 1 0-40.352 22.848 22.848 0 0 0 25.216 7.584 28.48 28.48 0 0 1 0-40.352 93.312 93.312 0 0 0 42.88 54.208 102.4 102.4 0 0 1-16.384-73.12 21.376 21.376 0 0 0 21.44 0 21.44 21.44 0 0 1 0-26.464 96.576 96.576 0 0 0 52.96 25.216 98.592 98.592 0 0 1-37.824-52.96 30.048 30.048 0 0 1 30.272-12.608c-10.624-6.4-9.248-14.24 0-22.688a59.712 59.712 0 0 0 35.2 6.4c-15.584-9.504-47.008-28.064 63.168-113.76z" fill="#353a40" opacity=".18" p-id="6638"></path><path d="M539.936 237.056c5.568-5.376 6.4-3.648 4.768 1.6a49.504 49.504 0 0 0 4.448 34.72l-21.664 0.64a49.312 49.312 0 0 1 12.448-36.96z" fill="#353a40" opacity=".27" p-id="6639"></path></svg>